<svg width="79" height="79" viewBox="0 0 79 79" fill="none" xmlns="http://www.w3.org/2000/svg">
<g filter="url(#filter0_d_14_8702)">
<circle cx="39.5" cy="35.5" r="35.5" fill="#EA5B5B"/>
<path d="M40.1477 26.2723C41.4964 26.2723 42.79 25.7352 43.7437 24.779C44.6974 23.8228 45.2332 22.526 45.2332 21.1738C45.2332 19.8215 44.6974 18.5247 43.7437 17.5685C42.79 16.6124 41.4964 16.0752 40.1477 16.0752C38.799 16.0752 37.5054 16.6124 36.5517 17.5685C35.598 18.5247 35.0622 19.8215 35.0622 21.1738C35.0622 22.526 35.598 23.8228 36.5517 24.779C37.5054 25.7352 38.799 26.2723 40.1477 26.2723ZM28.2409 22.1527C27.218 21.7909 26.0939 21.8486 25.1131 22.3131C24.1323 22.7776 23.374 23.6115 23.003 24.6334C22.632 25.6554 22.6783 26.7828 23.1319 27.7707C23.5854 28.7587 24.4095 29.5272 25.425 29.9093L33.0503 32.6917C33.1438 32.7258 33.2245 32.7879 33.2815 32.8695C33.3385 32.9512 33.3691 33.0485 33.369 33.1481V37.4581C33.369 37.8009 33.3032 38.1408 33.1753 38.4584L28.826 49.2499C28.6235 49.7525 28.5217 50.2902 28.5265 50.8323C28.5312 51.3743 28.6424 51.9101 28.8537 52.4091C29.065 52.908 29.3722 53.3604 29.7579 53.7403C30.1435 54.1202 30.6001 54.4203 31.1014 54.6233C31.6027 54.8264 32.139 54.9284 32.6797 54.9236C33.2203 54.9189 33.7547 54.8074 34.2524 54.5956C34.7501 54.3837 35.2013 54.0757 35.5803 53.689C35.9592 53.3024 36.2585 52.8447 36.461 52.3421L39.6992 44.3067C39.7352 44.2168 39.7973 44.1397 39.8774 44.0854C39.9575 44.0311 40.052 44.0021 40.1487 44.0021C40.2454 44.0021 40.3398 44.0311 40.4199 44.0854C40.5 44.1397 40.5621 44.2168 40.5981 44.3067L43.8364 52.3421C44.2453 53.3573 45.0398 54.168 46.045 54.5959C47.0503 55.0238 48.1838 55.0339 49.1964 54.6238C50.209 54.2138 51.0177 53.4172 51.4445 52.4094C51.8713 51.4016 51.8813 50.2651 51.4723 49.2499L47.1249 38.4662C46.9981 38.148 46.9324 37.8086 46.9312 37.4659V33.1472C46.9313 33.0474 46.962 32.95 47.0192 32.8683C47.0764 32.7867 47.1573 32.7246 47.2509 32.6907L54.8762 29.9093C55.3842 29.7239 55.8509 29.4399 56.2495 29.0737C56.6481 28.7074 56.9708 28.2661 57.1993 27.7748C57.4278 27.2835 57.5575 26.7519 57.581 26.2103C57.6046 25.6687 57.5215 25.1278 57.3366 24.6185C57.1516 24.1091 56.8684 23.6412 56.5031 23.2416C56.1378 22.842 55.6975 22.5184 55.2075 22.2893C54.7175 22.0603 54.1872 21.9302 53.647 21.9066C53.1069 21.883 52.5674 21.9663 52.0593 22.1517L48.3668 23.4997C47.5725 23.7891 46.9893 24.3698 46.6183 24.9992C45.9544 26.1266 45.0086 27.061 43.8743 27.7099C42.74 28.3588 41.4566 28.6998 40.1506 28.6993C38.8447 28.6998 37.5612 28.3588 36.4269 27.7099C35.2926 27.061 34.3468 26.1266 33.6829 24.9992C33.3109 24.3698 32.7278 23.7891 31.9335 23.4997L28.2409 22.1527Z" fill="white"/>
</g>
<defs>
<filter id="filter0_d_14_8702" x="0" y="0" width="79" height="79" filterUnits="userSpaceOnUse" color-interpolation-filters="sRGB">
<feFlood flood-opacity="0" result="BackgroundImageFix"/>
<feColorMatrix in="SourceAlpha" type="matrix" values="0 0 0 0 0 0 0 0 0 0 0 0 0 0 0 0 0 0 127 0" result="hardAlpha"/>
<feOffset dy="4"/>
<feGaussianBlur stdDeviation="2"/>
<feComposite in2="hardAlpha" operator="out"/>
<feColorMatrix type="matrix" values="0 0 0 0 0 0 0 0 0 0 0 0 0 0 0 0 0 0 0.25 0"/>
<feBlend mode="normal" in2="BackgroundImageFix" result="effect1_dropShadow_14_8702"/>
<feBlend mode="normal" in="SourceGraphic" in2="effect1_dropShadow_14_8702" result="shape"/>
</filter>
</defs>
</svg>
