<svg width="23" height="22" viewBox="0 0 23 22" fill="none" xmlns="http://www.w3.org/2000/svg">
<path d="M12.75 1.875C12.75 1.25368 12.2463 0.75 11.625 0.75C11.0037 0.75 10.5 1.25368 10.5 1.875V10.875C10.5 11.4963 11.0037 12 11.625 12C12.2463 12 12.75 11.4963 12.75 10.875V1.875ZM18.9289 3.89168C18.528 3.47543 17.869 3.50603 17.4604 3.91464C16.9937 4.3813 17.0418 5.14675 17.4847 5.63598C18.7375 7.01974 19.5 8.85678 19.5 10.875C19.5 15.2288 15.9788 18.75 11.625 18.75C7.27125 18.75 3.75 15.2288 3.75 10.875C3.75 8.85233 4.51583 7.01163 5.76736 5.62059C6.20529 5.13386 6.25027 4.37527 5.78729 3.91229C5.38001 3.50501 4.72309 3.47452 4.32344 3.88928C2.57459 5.70426 1.5 8.15858 1.5 10.875C1.5 16.4662 6.03375 21 11.625 21C17.2162 21 21.75 16.4662 21.75 10.875C21.75 8.15978 20.6763 5.70642 18.9289 3.89168Z" fill="#FFAAAA" fill-opacity="0.666667" stroke="#FFAAAA" stroke-width="1.1"/>
</svg>
