<svg width="24" height="24" viewBox="0 0 24 24" fill="none" xmlns="http://www.w3.org/2000/svg">
<path d="M20.9249 13.17C20.9699 12.795 20.9999 12.405 20.9999 12C20.9999 11.595 20.9699 11.205 20.9099 10.83L23.4449 8.85C23.6699 8.67 23.7299 8.34 23.5949 8.085L21.1949 3.93C21.0449 3.66 20.7299 3.57 20.4599 3.66L17.4749 4.86C16.8449 4.38 16.1849 3.99 15.4499 3.69L14.9999 0.51C14.9549 0.21 14.6999 0 14.3999 0H9.59989C9.29989 0 9.05989 0.21 9.01489 0.51L8.56489 3.69C7.82989 3.99 7.15489 4.395 6.53989 4.86L3.55489 3.66C3.28489 3.555 2.96989 3.66 2.81989 3.93L0.419889 8.085C0.269889 8.355 0.329889 8.67 0.569889 8.85L3.10489 10.83C3.04489 11.205 2.99989 11.61 2.99989 12C2.99989 12.39 3.02989 12.795 3.08989 13.17L0.554889 15.15C0.329889 15.33 0.269889 15.66 0.404889 15.915L2.80489 20.07C2.95489 20.34 3.26989 20.43 3.53989 20.34L6.52489 19.14C7.15489 19.62 7.81489 20.01 8.54989 20.31L8.99989 23.49C9.05989 23.79 9.29989 24 9.59989 24H14.3999C14.6999 24 14.9549 23.79 14.9849 23.49L15.4349 20.31C16.1699 20.01 16.8449 19.605 17.4599 19.14L20.4449 20.34C20.7149 20.445 21.0299 20.34 21.1799 20.07L23.5799 15.915C23.7299 15.645 23.6699 15.33 23.4299 15.15L20.9249 13.17ZM11.9999 16.5C9.52489 16.5 7.49989 14.475 7.49989 12C7.49989 9.525 9.52489 7.5 11.9999 7.5C14.4749 7.5 16.4999 9.525 16.4999 12C16.4999 14.475 14.4749 16.5 11.9999 16.5Z" fill="#EA5B5B"/>
</svg>
