<svg width="27" height="27" viewBox="0 0 27 27" fill="none" xmlns="http://www.w3.org/2000/svg">
<path fill-rule="evenodd" clip-rule="evenodd" d="M13.8167 12.2021L18.1791 7.83965C18.3599 7.65882 18.4614 7.41359 18.4614 7.1579C18.4614 6.9022 18.3599 6.65698 18.1791 6.47615L12.3857 0.68272C12.2049 0.501945 11.9596 0.400391 11.7039 0.400391C11.4482 0.400391 11.203 0.501945 11.0222 0.68272L6.65976 5.04322C6.56996 5.13279 6.49871 5.2392 6.4501 5.35636C6.40149 5.47351 6.37646 5.5991 6.37646 5.72593C6.37646 5.85277 6.40149 5.97836 6.4501 6.09551C6.49871 6.21267 6.56996 6.31908 6.65976 6.40865L12.4532 12.2021C12.634 12.3829 12.8792 12.4844 13.1349 12.4844C13.3906 12.4844 13.6359 12.3829 13.8167 12.2021ZM4.38211 10.8714H7.71276L10.6288 13.7854H8.2759C7.95622 13.7854 7.64963 13.9124 7.42358 14.1385C7.19754 14.3645 7.07054 14.6711 7.07054 14.9908C7.07054 15.3105 7.19754 15.6171 7.42358 15.8431C7.64963 16.0692 7.95622 16.1961 8.2759 16.1961H17.668C17.9877 16.1961 18.2943 16.0692 18.5204 15.8431C18.7464 15.6171 18.8734 15.3105 18.8734 14.9908C18.8734 14.6711 18.7464 14.3645 18.5204 14.1385C18.2943 13.9124 17.9877 13.7854 17.668 13.7854H15.6411L18.5552 10.8694H21.558C22.3252 10.8694 23.061 11.1742 23.6035 11.7167C24.146 12.2592 24.4508 12.9951 24.4508 13.7623V18.8094H1.48926V13.7623C1.48926 12.9951 1.79404 12.2592 2.33656 11.7167C2.87907 11.1742 3.61488 10.8714 4.38211 10.8714ZM24.4528 21.2201H1.48926V25.9837C1.48926 26.2394 1.59085 26.4847 1.77169 26.6655C1.95253 26.8463 2.1978 26.9479 2.45354 26.9479H23.4885C23.7442 26.9479 23.9895 26.8463 24.1703 26.6655C24.3512 26.4847 24.4528 26.2394 24.4528 25.9837V21.2201Z" fill="#EA5B5B"/>
</svg>
