<svg width="28" height="28" viewBox="0 0 28 28" fill="none" xmlns="http://www.w3.org/2000/svg">
<path d="M6.90605 12.3199H8.39957V21.2799H10.6396V13.4399H12.8796V21.2799H15.1196V13.4399H17.3596V21.2799H19.5996V12.3199H21.0925C21.5047 12.3199 21.8396 11.9077 21.8396 11.5364C21.8396 11.3119 21.7158 11.0587 21.5288 10.9367L21.5299 10.9075L21.5181 10.8868L21.5932 10.8683L14.5596 7.2457V6.18618C15.6796 6.77922 16.7721 5.75778 18.4796 6.3721V4.03186C16.771 3.4181 15.6796 4.43898 14.5596 3.84594V3.69586C14.5596 3.5105 14.2062 3.35986 13.9996 3.35986C13.7929 3.35986 13.4396 3.5105 13.4396 3.69586V7.2457L6.40653 10.8611L6.55829 10.8728L6.71957 10.879V10.8801C6.15957 11.0022 6.28501 11.3113 6.28501 11.5359C6.28445 11.9077 6.49389 12.3199 6.90605 12.3199ZM7.83957 21.8399L6.15957 23.5199H21.8396L20.1596 21.8399H7.83957ZM20.1596 12.8799V21.2799H20.6552L20.8741 21.5895L22.3671 22.989L22.8952 23.5199H27.4396V12.8799H20.1596ZM23.5196 19.5999H21.8396V17.9199H23.5196V19.5999ZM23.5196 16.2399H21.8396V14.5599H23.5196V16.2399ZM25.7596 19.5999H24.6396V17.9199H25.7596V19.5999ZM25.7596 16.2399H24.6396V14.5599H25.7596V16.2399ZM7.34341 21.2799H7.83957V12.8799H0.55957V23.5199H5.10341L5.63093 23.045L7.12445 21.589L7.34341 21.2799ZM3.35957 19.5999H2.23957V17.9199H3.35957V19.5999ZM3.35957 16.2399H2.23957V14.5599H3.35957V16.2399ZM6.15957 19.5999H4.47957V17.9199H6.15957V19.5999ZM6.15957 16.2399H4.47957V14.5599H6.15957V16.2399Z" fill="#EA5B5B"/>
</svg>
